<svg width="374.999512" height="85.000000" viewBox="0 0 375 85" fill="none" xmlns="http://www.w3.org/2000/svg" xmlns:xlink="http://www.w3.org/1999/xlink">
	<desc>
			Created with Pixso.
	</desc>
	<defs>
		<radialGradient gradientTransform="translate(27.5804 55.3482) rotate(128.932) scale(19.5423 17.5881)" cx="0.000000" cy="0.000000" r="1.000000" id="paint_radial_285_32148_0" gradientUnits="userSpaceOnUse">
			<stop stop-color="#5ADDF8"/>
			<stop stop-color="#AEBFFF"/>
			<stop offset="0.329153" stop-color="#1476FF"/>
			<stop offset="0.667785" stop-color="#655AF8"/>
			<stop offset="0.868255" stop-color="#948CFF"/>
			<stop offset="1.000000" stop-color="#D25AF8"/>
			<stop offset="1.000000" stop-color="#5A8BF8"/>
		</radialGradient>
		<linearGradient x1="26.349989" y1="72.250183" x2="25.925003" y2="59.925171" id="paint_linear_285_32150_0" gradientUnits="userSpaceOnUse">
			<stop stop-color="#000000" stop-opacity="0.000000"/>
			<stop offset="1.000000" stop-color="#000000"/>
		</linearGradient>
		<radialGradient gradientTransform="translate(22.9501 21.005) rotate(38.3656) scale(66.1297 93.0716)" cx="0.000000" cy="0.000000" r="1.000000" id="paint_radial_285_32152_0" gradientUnits="userSpaceOnUse">
			<stop stop-color="#5ADDF8"/>
			<stop stop-color="#AEBFFF"/>
			<stop offset="0.329153" stop-color="#1476FF"/>
			<stop offset="0.667785" stop-color="#655AF8"/>
			<stop offset="0.868255" stop-color="#948CFF"/>
			<stop offset="1.000000" stop-color="#D25AF8"/>
			<stop offset="1.000000" stop-color="#5A8BF8"/>
		</radialGradient>
	</defs>
	<path id="OpenTiny NEXT" d="M92.49 30.96Q90.74 34.3 90.74 38.73Q90.74 43.2 92.49 46.56Q93.8 49.08 95.83 50.7Q96.51 51.25 97.27 51.7Q98.02 52.13 98.81 52.46Q101.23 53.46 104.07 53.46Q106.73 53.46 109.03 52.55Q109.96 52.19 110.83 51.68Q111.65 51.19 112.38 50.59Q114.34 48.98 115.63 46.54Q117.4 43.2 117.4 38.73Q117.4 34.3 115.63 30.96Q114.33 28.49 112.34 26.87Q111.63 26.3 110.83 25.83Q109.94 25.3 108.99 24.93Q106.71 24.04 104.07 24.04Q101.31 24.04 98.94 25Q98.08 25.35 97.27 25.83Q96.48 26.29 95.78 26.86Q93.79 28.48 92.49 30.96ZM211.74 29.75Q212.17 29.91 212.66 29.91Q213.16 29.91 213.6 29.75Q214.19 29.54 214.68 29.04Q215.18 28.53 215.38 27.93Q215.54 27.49 215.54 27Q215.54 26.42 215.34 25.92Q215.13 25.38 214.68 24.92Q214.18 24.4 213.58 24.19Q213.15 24.04 212.66 24.04Q212.18 24.04 211.76 24.19Q211.15 24.4 210.66 24.92Q210.24 25.36 210.03 25.88Q209.82 26.4 209.82 27Q209.82 27.51 209.98 27.96Q210.19 28.55 210.66 29.04Q211.15 29.54 211.74 29.75ZM309.44 48.72L309.44 40.59L321.33 40.59L321.33 36.36L309.44 36.36L309.44 28.78L322.73 28.78L322.73 24.51L304.54 24.51L304.54 53L323.16 53L323.16 48.72L309.44 48.72ZM207.3 28.86L207.3 24.55L184.99 24.55L184.99 28.86L193.66 28.86L193.66 53L198.55 53L198.55 28.86L207.3 28.86ZM293.77 24.55L293.77 44.56L279.28 24.55L275.28 24.55L275.28 53L279.82 53L279.82 32.94L294.32 53L298.33 53L298.33 24.55L293.77 24.55ZM351.65 53L341.23 38.46L351.26 24.55L345.58 24.55L338.59 34.62L331.6 24.55L325.57 24.55L335.59 38.57L325.22 53L330.86 53L338.24 42.46L345.62 53L351.65 53ZM374.61 28.86L374.61 24.55L352.31 24.55L352.31 28.86L360.97 28.86L360.97 53L365.87 53L365.87 28.86L374.61 28.86ZM96.9 44.08Q95.91 41.76 95.91 38.73Q95.91 35.7 96.92 33.37Q97.84 31.25 99.45 30.01Q99.61 29.89 99.77 29.78Q100.24 29.46 100.74 29.23Q102.24 28.51 104.07 28.51Q105.88 28.51 107.36 29.22Q107.88 29.46 108.36 29.8Q108.61 29.97 108.84 30.16Q110.35 31.39 111.22 33.39Q112.23 35.7 112.23 38.73Q112.23 41.76 111.22 44.08Q110.35 46.07 108.86 47.31Q108.62 47.51 108.36 47.69Q107.85 48.05 107.29 48.31Q105.84 48.99 104.07 48.99Q102.36 48.99 100.93 48.35Q100.32 48.08 99.76 47.69Q99.46 47.48 99.18 47.25Q97.73 46.02 96.9 44.08ZM135.19 32.69Q134.04 32.36 132.8 32.36Q131.55 32.36 130.4 32.71Q129.7 32.93 129.04 33.28Q128.67 33.48 128.32 33.72Q127.08 34.58 126.22 36.01Q126.15 35.58 126.13 35.08Q126.11 34.57 126.07 34.07Q126.03 33.75 126.02 33.45Q126 33.14 125.96 32.86L121.84 32.86L121.84 62.01L126.5 62.01L126.5 50.23Q127.25 51.33 128.26 52.05Q128.72 52.39 129.24 52.64Q129.79 52.91 130.37 53.1Q131.53 53.46 132.8 53.46Q134.08 53.46 135.25 53.11Q136.29 52.8 137.25 52.22Q137.43 52.11 137.6 51.99Q139.4 50.76 140.53 48.56Q141.78 46.15 141.78 42.89Q141.78 39.66 140.53 37.27Q139.42 35.13 137.67 33.9Q137.46 33.75 137.25 33.62Q136.26 33.01 135.19 32.69ZM159.08 33.35Q157.2 32.36 154.79 32.36Q153 32.36 151.4 32.9Q150.61 33.17 149.86 33.58Q149.27 33.9 148.75 34.3Q147.25 35.42 146.22 37.18Q144.85 39.55 144.85 42.81Q144.85 46.23 146.22 48.62Q147.17 50.26 148.56 51.35Q149.19 51.85 149.91 52.24Q150.68 52.64 151.5 52.91Q153.13 53.46 154.95 53.46Q157.35 53.46 159.35 52.57Q159.65 52.43 159.94 52.27Q161.53 51.43 162.38 50.12Q162.73 49.58 162.95 48.95L159.5 46.89Q158.92 48 158.02 48.62Q157.87 48.72 157.72 48.8Q156.62 49.42 155.14 49.42Q153.71 49.42 152.58 48.84Q152.43 48.76 152.28 48.67Q151.35 48.09 150.69 47.06Q149.93 45.88 149.74 44.09L163.54 44.09Q164.08 40.83 163.13 38.14Q162.49 36.32 161.29 35.03Q160.7 34.4 159.98 33.89Q159.55 33.59 159.08 33.35ZM182.33 33.37Q180.71 32.36 178.47 32.36Q176.55 32.36 174.99 33.11Q174.81 33.2 174.63 33.3Q174.2 33.53 173.82 33.83Q172.7 34.7 171.98 36.09Q171.78 34.88 171.66 32.86L167.55 32.86L167.55 53L172.2 53L172.2 42.42Q172.2 40.52 172.84 39.24Q173.39 38.14 174.28 37.48Q174.42 37.37 174.58 37.27Q174.94 37.05 175.32 36.9Q176.11 36.59 177.02 36.59Q178.33 36.59 179.19 37.21Q179.67 37.54 180.01 38.07Q180.99 39.55 180.99 42.27L180.99 53L185.65 53L185.65 40.79Q185.65 36.71 183.7 34.54Q183.09 33.84 182.33 33.37ZM235.18 33.37Q233.57 32.36 231.32 32.36Q229.4 32.36 227.85 33.11Q227.67 33.2 227.49 33.3Q227.06 33.53 226.68 33.83Q225.55 34.7 224.83 36.09Q224.63 34.88 224.52 32.86L220.4 32.86L220.4 53L225.06 53L225.06 42.42Q225.06 40.52 225.7 39.24Q226.25 38.14 227.14 37.48Q227.28 37.37 227.43 37.27Q227.79 37.05 228.18 36.9Q228.97 36.59 229.88 36.59Q231.18 36.59 232.05 37.21Q232.53 37.54 232.87 38.07Q233.85 39.55 233.85 42.27L233.85 53L238.51 53L238.51 40.79Q238.51 36.71 236.56 34.54Q235.94 33.84 235.18 33.37ZM210.34 32.86L210.34 53L214.99 53L214.99 32.86L210.34 32.86ZM256.54 32.86L251.29 47.51L245.62 32.86L240.37 32.86L248.97 53.34L248.69 54Q247.92 55.72 247.33 56.63Q246.75 57.54 246.12 57.91Q245.5 58.28 244.61 58.28Q244.23 58.28 243.86 58.22Q243.55 58.16 243.25 58.06Q242.75 57.9 242.34 57.62Q242.21 57.53 242.09 57.43L240.26 61.08Q241.04 61.74 242.18 62.1Q243.33 62.47 244.65 62.47Q246.99 62.47 248.58 61.39Q248.87 61.19 249.14 60.96Q250.87 59.45 252.23 55.98L261.44 32.86L256.54 32.86ZM152.65 36.69Q153.55 36.29 154.64 36.29Q155.68 36.29 156.54 36.69Q156.64 36.74 156.74 36.79Q156.97 36.92 157.18 37.07Q157.81 37.54 158.23 38.29Q158.8 39.27 158.87 40.68L149.82 40.68Q150.09 39.27 150.79 38.29Q151.47 37.32 152.4 36.82Q152.43 36.8 152.46 36.79Q152.55 36.74 152.65 36.69ZM134.06 48.73Q133.07 49.23 131.82 49.23Q130.98 49.23 130.21 49Q129.7 48.85 129.22 48.59Q129.16 48.56 129.1 48.52Q127.98 47.87 127.26 46.53Q126.5 45.11 126.5 42.89Q126.5 40.72 127.26 39.26Q128.01 37.81 129.2 37.15Q129.21 37.15 129.22 37.14Q129.76 36.84 130.33 36.68Q131.05 36.48 131.82 36.48Q133.02 36.48 133.98 36.95Q134.24 37.07 134.49 37.23Q134.57 37.29 134.65 37.35Q135.68 38.1 136.27 39.45Q136.92 40.91 136.92 42.89Q136.92 44.91 136.27 46.33Q135.72 47.57 134.77 48.29Q134.63 48.4 134.49 48.49Q134.28 48.62 134.06 48.73Z" fill="#DFDFDF" fill-opacity="1.000000" fill-rule="evenodd"/>
	<path id="矢量 1" d="M30.54 68.85L30.6 53.55L15.3 53.6L27.6 69.89C28.56 71.15 30.54 70.46 30.54 68.85Z" fill="url(#paint_radial_285_32148_0)" fill-opacity="1.000000" fill-rule="evenodd"/>
	<g opacity="0.100000" style="mix-blend-mode:normal">
		<path id="矢量 1" d="M30.54 68.85L30.6 53.55L15.3 53.6L27.6 69.89C28.56 71.15 30.54 70.46 30.54 68.85Z" fill="url(#paint_linear_285_32150_0)" fill-opacity="1.000000" fill-rule="evenodd"/>
	</g>
	<rect id="矩形 5" x="10.200195" y="16.150146" rx="22.949995" width="64.599991" height="45.899990" fill="url(#paint_radial_285_32152_0)" fill-opacity="1.000000"/>
	<rect id="矩形 5" rx="22.524994" width="63.749992" height="45.049988" transform="matrix(-1 0 0 1 74.375 16.5752)" fill="#000000" fill-opacity="0"/>
	<rect id="矩形 5" rx="22.524994" width="63.749992" height="45.049988" transform="matrix(-1 0 0 1 74.375 16.5752)" stroke="#000000" stroke-opacity="0" stroke-width="1.000000"/>
	<path id="path" d="M38.58 50.2C37.58 51.04 36.46 51.56 35.21 51.75C33.95 51.95 32.78 51.88 31.68 51.55C30.6 51.22 28.93 49.79 28.93 49.79C28.93 49.79 24.66 46.52 24.66 38.76C24.66 31.02 28.47 27.62 28.47 27.62C28.47 27.62 29.51 26.61 31.02 26.35C32.54 26.07 33.51 26.33 34.56 26.63C43.25 29.09 53.02 29.18 61.69 26.63C62.73 26.33 63.67 26.29 64.5 26.49C65.33 26.7 66.05 27.1 66.65 27.7C69.4 30.43 70.43 34.9 70.55 38.76C70.65 42.57 69.67 46.95 67.09 49.75C66.33 50.59 65.43 51.18 64.41 51.53C63.4 51.88 62.32 51.95 61.19 51.75C60.06 51.56 59.05 51.04 58.19 50.2C57.81 49.82 57.28 49.35 56.58 48.79C55.89 48.22 55.1 47.66 54.22 47.12C53.33 46.58 52.37 46.11 51.33 45.73C50.28 45.34 49.22 45.16 48.12 45.16C47.05 45.16 46.03 45.35 45.05 45.75C44.07 46.14 43.17 46.61 42.34 47.15C41.53 47.7 40.8 48.26 40.17 48.83C39.53 49.39 39 49.85 38.58 50.2Z" fill="#FFFFFF" fill-opacity="1.000000" fill-rule="nonzero"/>
	<rect id="矩形 841" rx="1.700000" width="3.400000" height="10.199997" transform="matrix(-0.999983 0.00577157 0.00577157 0.999983 64.6943 32.3301)" fill="#1476FF" fill-opacity="1.000000"/>
	<path id="合并" d="M36.51 32.3C37.2 32.28 37.87 32.65 38.18 33.31L41.42 40.04C41.84 40.91 41.47 41.94 40.59 42.34C39.71 42.73 38.66 42.35 38.24 41.48L36.52 37.9L34.8 41.48C34.38 42.35 33.33 42.74 32.45 42.34C31.57 41.94 31.2 40.91 31.62 40.04L34.85 33.31C35.17 32.66 35.83 32.28 36.51 32.3Z" fill="#1476FF" fill-opacity="1.000000" fill-rule="evenodd"/>
</svg>
