<svg width="260.000000" height="85.000000" viewBox="0 0 260 85" fill="none" xmlns="http://www.w3.org/2000/svg" xmlns:xlink="http://www.w3.org/1999/xlink">
	<desc>
			Created with Pixso.
	</desc>
	<defs>
		<radialGradient gradientTransform="translate(27.5804 55.3482) rotate(128.932) scale(19.5423 17.5881)" cx="0.000000" cy="0.000000" r="1.000000" id="paint_radial_285_32148_0" gradientUnits="userSpaceOnUse">
			<stop stop-color="#5ADDF8"/>
			<stop stop-color="#AEBFFF"/>
			<stop offset="0.329153" stop-color="#1476FF"/>
			<stop offset="0.667785" stop-color="#655AF8"/>
			<stop offset="0.868255" stop-color="#948CFF"/>
			<stop offset="1.000000" stop-color="#D25AF8"/>
			<stop offset="1.000000" stop-color="#5A8BF8"/>
		</radialGradient>
		<linearGradient x1="26.349989" y1="72.250183" x2="25.925003" y2="59.925171" id="paint_linear_285_32150_0" gradientUnits="userSpaceOnUse">
			<stop stop-color="#000000" stop-opacity="0.000000"/>
			<stop offset="1.000000" stop-color="#000000"/>
		</linearGradient>
		<radialGradient gradientTransform="translate(22.9501 21.005) rotate(38.3656) scale(66.1297 93.0716)" cx="0.000000" cy="0.000000" r="1.000000" id="paint_radial_285_32152_0" gradientUnits="userSpaceOnUse">
			<stop stop-color="#5ADDF8"/>
			<stop stop-color="#AEBFFF"/>
			<stop offset="0.329153" stop-color="#1476FF"/>
			<stop offset="0.667785" stop-color="#655AF8"/>
			<stop offset="0.868255" stop-color="#948CFF"/>
			<stop offset="1.000000" stop-color="#D25AF8"/>
			<stop offset="1.000000" stop-color="#5A8BF8"/>
		</radialGradient>
	</defs>
	<path id="OpenTiny" d="M92.53 30.96Q90.83 34.3 90.83 38.73Q90.83 43.2 92.53 46.54Q93.8 49.03 95.78 50.64Q96.46 51.2 97.23 51.66Q98.1 52.17 99.02 52.53Q101.3 53.42 103.92 53.42Q106.78 53.42 109.18 52.38Q109.91 52.06 110.6 51.64Q111.3 51.21 111.93 50.7Q113.97 49.06 115.29 46.52Q117.02 43.2 117.02 38.73Q117.02 34.3 115.31 30.98Q114.04 28.51 112.07 26.89Q111.38 26.33 110.62 25.87Q109.89 25.43 109.11 25.1Q106.73 24.08 103.92 24.08Q101.3 24.08 99.02 24.98Q98.1 25.34 97.23 25.85Q96.49 26.29 95.82 26.82Q93.82 28.45 92.53 30.96ZM210.32 29.43Q210.69 29.56 211.11 29.56Q211.56 29.56 211.96 29.41Q212.48 29.22 212.91 28.78Q213.35 28.34 213.53 27.8Q213.67 27.41 213.67 26.96Q213.67 26.44 213.5 26Q213.31 25.53 212.93 25.15Q212.61 24.81 212.21 24.62Q211.72 24.39 211.11 24.39Q210.69 24.39 210.32 24.52Q209.79 24.71 209.36 25.17Q208.92 25.63 208.75 26.17Q208.62 26.54 208.62 26.96Q208.62 27.44 208.78 27.86Q208.96 28.36 209.36 28.78Q209.79 29.24 210.32 29.43ZM205.87 28.24L205.87 24.55L184.14 24.55L184.14 28.24L192.89 28.24L192.89 53L197.08 53L197.08 28.24L205.87 28.24ZM96.3 44.39Q95.25 41.92 95.25 38.73Q95.25 35.51 96.32 33.04Q97.28 30.83 98.95 29.53Q99.14 29.38 99.35 29.24Q99.83 28.9 100.35 28.66Q101.95 27.89 103.92 27.89Q105.99 27.89 107.64 28.71Q108.1 28.94 108.52 29.24Q108.77 29.4 109 29.59Q110.62 30.88 111.55 33.04Q112.62 35.51 112.62 38.73Q112.62 41.92 111.55 44.39Q110.63 46.52 109.04 47.84Q108.79 48.05 108.52 48.24Q108.05 48.58 107.53 48.83Q105.92 49.62 103.92 49.62Q102.06 49.62 100.51 48.91Q99.89 48.63 99.33 48.24Q99.02 48.02 98.73 47.78Q97.19 46.47 96.3 44.39ZM134.07 32.57Q133.17 32.36 132.22 32.36Q130.96 32.36 129.82 32.71Q129.08 32.93 128.38 33.3Q128.01 33.49 127.68 33.73Q126.39 34.62 125.53 36.12Q125.45 35.66 125.43 35.12Q125.41 34.57 125.37 34.07Q125.34 33.75 125.32 33.45Q125.3 33.14 125.3 32.82L125.3 32.82L121.76 32.82L121.76 62.01L125.76 62.01L125.76 50.01Q126.54 51.22 127.62 52Q128.06 52.32 128.56 52.57Q129.27 52.92 130.01 53.13Q131.07 53.42 132.22 53.42Q133.2 53.42 134.13 53.2Q135.41 52.9 136.59 52.18Q136.8 52.05 137 51.91Q138.75 50.69 139.87 48.54Q141.12 46.15 141.12 42.89Q141.12 39.66 139.87 37.27Q138.76 35.13 137.01 33.9Q136.8 33.75 136.59 33.62Q135.38 32.87 134.07 32.57ZM158.39 33.32Q156.55 32.36 154.21 32.36Q152.47 32.36 150.92 32.89Q150.11 33.16 149.35 33.58Q148.81 33.88 148.32 34.25Q146.81 35.38 145.79 37.18Q144.45 39.55 144.45 42.81Q144.45 46.19 145.79 48.58Q146.74 50.26 148.14 51.36Q148.73 51.83 149.41 52.2Q150.06 52.55 150.74 52.8Q152.46 53.42 154.41 53.42Q156.7 53.42 158.62 52.58Q158.95 52.44 159.26 52.27Q160.76 51.48 161.59 50.25Q161.97 49.68 162.22 49.03L159.23 47.28Q158.67 48.33 157.82 48.96Q157.59 49.13 157.34 49.27Q156.15 49.92 154.6 49.92Q153.09 49.92 151.86 49.33Q151.79 49.3 151.72 49.27Q151.47 49.14 151.24 48.98Q150.28 48.34 149.63 47.24Q148.81 45.88 148.65 43.82L162.8 43.82Q163.29 40.84 162.46 38.29Q162.42 38.19 162.39 38.08Q161.8 36.36 160.68 35.1Q160.08 34.43 159.32 33.89Q158.88 33.58 158.39 33.32ZM181.13 33.34Q179.54 32.36 177.34 32.36Q175.53 32.36 174.03 33.04Q173.75 33.17 173.49 33.32Q173.07 33.55 172.7 33.83Q171.53 34.72 170.76 36.12Q170.61 34.84 170.54 32.82L167 32.82L167 53L171 53L171 41.96Q171 40.05 171.71 38.73Q172.27 37.72 173.1 37.08Q173.36 36.89 173.64 36.73Q174.18 36.43 174.76 36.26Q175.47 36.05 176.25 36.05Q177.67 36.05 178.61 36.72Q179.08 37.06 179.43 37.57Q180.48 39.08 180.48 41.88L180.48 53L184.49 53L184.49 40.68Q184.49 36.67 182.54 34.52Q181.91 33.81 181.13 33.34ZM232.98 33.34Q231.38 32.36 229.19 32.36Q227.38 32.36 225.88 33.04Q225.6 33.17 225.33 33.32Q224.92 33.55 224.54 33.83Q223.38 34.72 222.61 36.12Q222.46 34.84 222.38 32.82L218.84 32.82L218.84 53L222.85 53L222.85 41.96Q222.85 40.05 223.56 38.73Q224.11 37.72 224.95 37.08Q225.2 36.89 225.49 36.73Q226.03 36.43 226.6 36.26Q227.32 36.05 228.1 36.05Q229.52 36.05 230.46 36.72Q230.93 37.06 231.27 37.57Q232.33 39.08 232.33 41.88L232.33 53L236.33 53L236.33 40.68Q236.33 36.67 234.39 34.52Q233.75 33.81 232.98 33.34ZM209.13 32.82L209.13 53L213.13 53L213.13 32.82L209.13 32.82ZM254.71 32.82L249.08 48.29L243.1 32.82L238.54 32.82L247.05 53.25L246.4 54.74Q245.7 56.37 245.11 57.25Q244.53 58.13 243.91 58.47L243.9 58.47Q243.29 58.82 242.47 58.82Q242.09 58.82 241.72 58.76Q241.41 58.7 241.11 58.6Q240.45 58.39 239.95 58.01L238.39 61.16Q239.09 61.78 240.16 62.12Q241.23 62.47 242.47 62.47Q244.84 62.47 246.35 61.33Q246.52 61.2 246.69 61.05Q248.26 59.64 249.55 56.34L258.88 32.82L254.71 32.82ZM152.39 36.11Q153.19 35.86 154.06 35.86Q155.41 35.86 156.44 36.42Q156.71 36.56 156.94 36.75Q157.63 37.27 158.07 38.11Q158.68 39.24 158.8 40.79L148.77 40.79Q149.04 39.16 149.8 38.05Q150.42 37.14 151.27 36.62Q151.46 36.5 151.67 36.4Q152.02 36.23 152.39 36.11ZM133.86 49.25Q132.82 49.77 131.51 49.77Q130.51 49.77 129.6 49.47Q129.14 49.32 128.69 49.1Q128.65 49.07 128.61 49.05Q127.37 48.36 126.58 46.86Q125.76 45.3 125.76 42.89Q125.76 40.48 126.58 38.92Q127.37 37.42 128.61 36.72Q128.65 36.7 128.69 36.67Q129.2 36.4 129.73 36.24Q130.58 35.97 131.51 35.97Q132.82 35.97 133.86 36.49Q134.12 36.63 134.37 36.79Q134.43 36.83 134.49 36.87Q135.63 37.68 136.28 39.18Q136.96 40.75 136.96 42.89Q136.96 45.06 136.28 46.6Q135.65 48 134.59 48.8Q134.48 48.88 134.37 48.95Q134.12 49.12 133.86 49.25Z" fill="#000000" fill-opacity="1.000000" fill-rule="evenodd"/>
	<path id="矢量 1" d="M30.54 68.85L30.6 53.55L15.3 53.6L27.6 69.89C28.56 71.15 30.54 70.46 30.54 68.85Z" fill="url(#paint_radial_285_32148_0)" fill-opacity="1.000000" fill-rule="evenodd"/>
	<g opacity="0.100000" style="mix-blend-mode:normal">
		<path id="矢量 1" d="M30.54 68.85L30.6 53.55L15.3 53.6L27.6 69.89C28.56 71.15 30.54 70.46 30.54 68.85Z" fill="url(#paint_linear_285_32150_0)" fill-opacity="1.000000" fill-rule="evenodd"/>
	</g>
	<rect id="矩形 5" x="10.200195" y="16.150146" rx="22.949995" width="64.599991" height="45.899990" fill="url(#paint_radial_285_32152_0)" fill-opacity="1.000000"/>
	<rect id="矩形 5" rx="22.524994" width="63.749992" height="45.049988" transform="matrix(-1 0 0 1 74.375 16.5752)" fill="#000000" fill-opacity="0"/>
	<rect id="矩形 5" rx="22.524994" width="63.749992" height="45.049988" transform="matrix(-1 0 0 1 74.375 16.5752)" stroke="#000000" stroke-opacity="0" stroke-width="1.000000"/>
	<path id="path" d="M38.58 50.2C37.58 51.04 36.46 51.56 35.21 51.75C33.95 51.95 32.78 51.88 31.68 51.55C30.6 51.22 28.93 49.79 28.93 49.79C28.93 49.79 24.66 46.52 24.66 38.76C24.66 31.02 28.47 27.62 28.47 27.62C28.47 27.62 29.51 26.61 31.02 26.35C32.54 26.07 33.51 26.33 34.56 26.63C43.25 29.09 53.02 29.18 61.69 26.63C62.73 26.33 63.67 26.29 64.5 26.49C65.33 26.7 66.05 27.1 66.65 27.7C69.4 30.43 70.43 34.9 70.54 38.76C70.65 42.57 69.67 46.95 67.09 49.75C66.33 50.59 65.43 51.18 64.41 51.53C63.4 51.88 62.32 51.95 61.19 51.75C60.06 51.56 59.05 51.04 58.19 50.2C57.81 49.82 57.28 49.35 56.58 48.79C55.89 48.22 55.1 47.66 54.22 47.12C53.33 46.58 52.37 46.11 51.33 45.73C50.28 45.34 49.22 45.16 48.12 45.16C47.05 45.16 46.03 45.35 45.04 45.75C44.07 46.14 43.17 46.61 42.34 47.15C41.53 47.7 40.79 48.26 40.17 48.83C39.53 49.39 39 49.85 38.58 50.2Z" fill="#FFFFFF" fill-opacity="1.000000" fill-rule="nonzero"/>
	<rect id="矩形 841" rx="1.700000" width="3.400000" height="10.199997" transform="matrix(-0.999983 0.00577157 0.00577157 0.999983 64.6943 32.3301)" fill="#1476FF" fill-opacity="1.000000"/>
	<path id="合并" d="M36.51 32.3C37.2 32.28 37.87 32.65 38.18 33.31L41.42 40.04C41.84 40.91 41.47 41.94 40.59 42.34C39.71 42.73 38.66 42.35 38.24 41.48L36.52 37.9L34.8 41.48C34.38 42.35 33.33 42.74 32.45 42.34C31.57 41.94 31.2 40.91 31.62 40.04L34.85 33.31C35.17 32.66 35.83 32.28 36.51 32.3Z" fill="#1476FF" fill-opacity="1.000000" fill-rule="evenodd"/>
</svg>
